<svg width="193" height="40" viewBox="0 0 193 40" fill="none" xmlns="http://www.w3.org/2000/svg">
<path fill-rule="evenodd" clip-rule="evenodd" d="M20 0C25.3422 0 30.3647 2.08031 34.1422 5.85781C37.9196 9.63539 40 14.6578 40 20C40 25.3422 37.9197 30.3647 34.1422 34.1422C30.3647 37.9197 25.3422 40 20 40C14.6578 40 9.63523 37.9198 5.85781 34.1422C2.08039 30.3646 0 25.3422 0 20C0 14.6578 2.08031 9.63531 5.85781 5.85781C9.63531 2.08031 14.6578 0 20 0ZM21.5714 7C21.5714 6.44772 21.1237 6 20.5714 6C20.0191 6 19.5714 6.44772 19.5714 7V10.5714H17.7143C16.3882 10.5714 15.1164 11.0982 14.1788 12.0359C13.2411 12.9736 12.7143 14.2453 12.7143 15.5714C12.7143 16.8975 13.2411 18.1693 14.1788 19.107C15.1164 20.0446 16.3882 20.5714 17.7143 20.5714H19.5714V26.5714H13.7143C13.162 26.5714 12.7143 27.0191 12.7143 27.5714C12.7143 28.1237 13.162 28.5714 13.7143 28.5714H19.5714V32.1429C19.5714 32.6951 20.0191 33.1429 20.5714 33.1429C21.1237 33.1429 21.5714 32.6951 21.5714 32.1429V28.5714H23.4286C24.7547 28.5714 26.0264 28.0446 26.9641 27.107C27.9018 26.1693 28.4286 24.8975 28.4286 23.5714C28.4286 22.2453 27.9018 20.9736 26.9641 20.0359C26.0264 19.0982 24.7547 18.5714 23.4286 18.5714H21.5714V12.5714H26.2857C26.838 12.5714 27.2857 12.1237 27.2857 11.5714C27.2857 11.0191 26.838 10.5714 26.2857 10.5714H21.5714V7ZM19.5714 12.5714H21.5714V10.5714H19.5714V12.5714ZM19.5714 18.5714H17.7143C16.9186 18.5714 16.1556 18.2554 15.593 17.6927C15.0304 17.1301 14.7143 16.3671 14.7143 15.5714C14.7143 14.7758 15.0304 14.0127 15.593 13.4501C16.1556 12.8875 16.9186 12.5714 17.7143 12.5714H19.5714V18.5714ZM19.5714 18.5714V20.5714H21.5714V26.5714H19.5714V28.5714H21.5714V26.5714H23.4286C24.2242 26.5714 24.9873 26.2554 25.5499 25.6928C26.1125 25.1301 26.4286 24.3671 26.4286 23.5714C26.4286 22.7758 26.1125 22.0127 25.5499 21.4501C24.9873 20.8875 24.2242 20.5714 23.4286 20.5714H21.5714V18.5714H19.5714ZM118.48 11V27.986H115.677V11H118.48ZM45.921 15.7285C45.307 16.9681 45 18.3759 45 19.9521C45 21.5283 45.307 22.9361 45.921 24.1756C46.5483 25.4152 47.3959 26.3869 48.4637 27.0908C49.5448 27.7794 50.7528 28.1238 52.0875 28.1238C53.6626 28.1238 55.0307 27.6723 56.1919 26.7695C57.3665 25.8513 58.1874 24.5735 58.6545 22.9361H55.4311C55.1108 23.7013 54.6569 24.2828 54.0697 24.6806C53.4957 25.0632 52.8283 25.2545 52.0675 25.2545C51.2533 25.2545 50.5259 25.0403 49.8852 24.6118C49.2579 24.168 48.764 23.5482 48.4036 22.7525C48.0566 21.9415 47.8831 21.008 47.8831 19.9521C47.8831 18.8809 48.0566 17.9474 48.4036 17.1517C48.764 16.356 49.2579 15.7438 49.8852 15.3154C50.5259 14.8716 51.2533 14.6497 52.0675 14.6497C52.8283 14.6497 53.4957 14.841 54.0697 15.2236C54.6569 15.6061 55.1108 16.18 55.4311 16.9451H58.6545C58.1874 15.323 57.3665 14.0529 56.1919 13.1347C55.0173 12.2166 53.6492 11.7575 52.0875 11.7575C50.7528 11.7575 49.5448 12.1094 48.4637 12.8134C47.3959 13.502 46.5483 14.4737 45.921 15.7285ZM63.0908 27.3892C63.9451 27.9248 64.9061 28.1926 65.9739 28.1926C67.055 28.1926 68.0294 27.9248 68.897 27.3892C69.7779 26.8383 70.472 26.0655 70.9792 25.0709C71.4998 24.0762 71.76 22.9285 71.76 21.6277C71.76 20.327 71.5064 19.1793 70.9992 18.1846C70.5054 17.19 69.8246 16.4248 68.9571 15.8892C68.0895 15.3383 67.1218 15.0629 66.054 15.0629C64.9862 15.0629 64.0185 15.3383 63.1509 15.8892C62.2833 16.4248 61.5959 17.19 61.0887 18.1846C60.5948 19.1793 60.3479 20.327 60.3479 21.6277C60.3479 22.9285 60.5882 24.0762 61.0687 25.0709C61.5625 26.0655 62.2366 26.8383 63.0908 27.3892ZM67.3954 24.979C66.9549 25.2545 66.4811 25.3922 65.9739 25.3922C65.173 25.3922 64.5057 25.0709 63.9718 24.4281C63.4512 23.7701 63.1909 22.8367 63.1909 21.6277C63.1909 20.4188 63.4579 19.493 63.9918 18.8503C64.539 18.1923 65.2131 17.8633 66.0139 17.8633C66.8148 17.8633 67.4888 18.1923 68.0361 18.8503C68.5967 19.493 68.877 20.4188 68.877 21.6277C68.877 22.4388 68.7435 23.1274 68.4765 23.6936C68.2096 24.2598 67.8492 24.6883 67.3954 24.979ZM79.9627 15.0858C81.2841 15.0858 82.3519 15.5679 83.1661 16.5319C83.9803 17.4807 84.3874 18.812 84.3874 20.5259V27.986H81.5844V20.9621C81.5844 19.9521 81.3642 19.1793 80.9237 18.6437C80.4832 18.0928 79.8826 17.8174 79.1218 17.8174C78.3476 17.8174 77.7336 18.0928 77.2798 18.6437C76.8394 19.1793 76.6191 19.9521 76.6191 20.9621V27.986H73.8161V15.2695H76.6191V16.8533C76.9929 16.3024 77.4667 15.8739 78.0406 15.5679C78.6279 15.2465 79.2686 15.0858 79.9627 15.0858ZM90.3164 24.0609V17.9092H92.799V15.2695H90.3164V12.1248H87.4933V15.2695H86.1719V17.9092H87.4933V24.0379C87.4933 26.67 88.6746 27.986 91.0371 27.986H92.799V25.2774H91.4976C91.0705 25.2774 90.7635 25.1856 90.5766 25.002C90.4031 24.8031 90.3164 24.4894 90.3164 24.0609ZM97.618 17.2435C97.9784 16.5702 98.4456 16.0422 99.0195 15.6597C99.6068 15.2771 100.274 15.0858 101.022 15.0858V18.4601H100.281C99.3999 18.4601 98.7326 18.6973 98.2787 19.1717C97.8383 19.646 97.618 20.4724 97.618 21.6507V27.986H94.815V15.2695H97.618V17.2435ZM104.952 27.3892C105.806 27.9248 106.767 28.1926 107.835 28.1926C108.916 28.1926 109.89 27.9248 110.758 27.3892C111.639 26.8383 112.333 26.0655 112.84 25.0709C113.361 24.0762 113.621 22.9285 113.621 21.6277C113.621 20.327 113.367 19.1793 112.86 18.1846C112.366 17.19 111.686 16.4248 110.818 15.8892C109.95 15.3383 108.983 15.0629 107.915 15.0629C106.847 15.0629 105.879 15.3383 105.012 15.8892C104.144 16.4248 103.457 17.19 102.95 18.1846C102.456 19.1793 102.209 20.327 102.209 21.6277C102.209 22.9285 102.449 24.0762 102.93 25.0709C103.423 26.0655 104.098 26.8383 104.952 27.3892ZM109.256 24.979C108.816 25.2545 108.342 25.3922 107.835 25.3922C107.034 25.3922 106.367 25.0709 105.833 24.4281C105.312 23.7701 105.052 22.8367 105.052 21.6277C105.052 20.4188 105.319 19.493 105.853 18.8503C106.4 18.1923 107.074 17.8633 107.875 17.8633C108.676 17.8633 109.35 18.1923 109.897 18.8503C110.458 19.493 110.738 20.4188 110.738 21.6277C110.738 22.4388 110.604 23.1274 110.338 23.6936C110.071 24.2598 109.71 24.6883 109.256 24.979ZM141.256 27.986V11.9641H138.093L133.648 23.8772L129.204 11.9641H126.02V27.986H128.823V17.5649L132.587 27.986H134.709L138.453 17.5649V27.986H141.256ZM148.953 28.1926C147.885 28.1926 146.924 27.9248 146.07 27.3892C145.216 26.8383 144.541 26.0655 144.048 25.0709C143.567 24.0762 143.327 22.9285 143.327 21.6277C143.327 20.327 143.574 19.1793 144.068 18.1846C144.575 17.19 145.262 16.4248 146.13 15.8892C146.997 15.3383 147.965 15.0629 149.033 15.0629C150.101 15.0629 151.068 15.3383 151.936 15.8892C152.804 16.4248 153.484 17.19 153.978 18.1846C154.485 19.1793 154.739 20.327 154.739 21.6277C154.739 22.9285 154.479 24.0762 153.958 25.0709C153.451 26.0655 152.757 26.8383 151.876 27.3892C151.008 27.9248 150.034 28.1926 148.953 28.1926ZM148.953 25.3922C149.46 25.3922 149.934 25.2545 150.374 24.979C150.828 24.6883 151.189 24.2598 151.455 23.6936C151.722 23.1274 151.856 22.4388 151.856 21.6277C151.856 20.4188 151.576 19.493 151.015 18.8503C150.468 18.1923 149.794 17.8633 148.993 17.8633C148.192 17.8633 147.518 18.1923 146.971 18.8503C146.437 19.493 146.17 20.4188 146.17 21.6277C146.17 22.8367 146.43 23.7701 146.951 24.4281C147.485 25.0709 148.152 25.3922 148.953 25.3922ZM166.145 16.5319C165.331 15.5679 164.263 15.0858 162.942 15.0858C162.248 15.0858 161.607 15.2465 161.02 15.5679C160.446 15.8739 159.972 16.3024 159.598 16.8533V15.2695H156.795V27.986H159.598V20.9621C159.598 19.9521 159.818 19.1793 160.259 18.6437C160.713 18.0928 161.327 17.8174 162.101 17.8174C162.862 17.8174 163.462 18.0928 163.903 18.6437C164.343 19.1793 164.563 19.9521 164.563 20.9621V27.986H167.366V20.5259C167.366 18.812 166.959 17.4807 166.145 16.5319ZM180.343 21.3523C180.343 21.8114 180.316 22.2246 180.263 22.5918H172.154C172.221 23.51 172.501 24.2292 172.995 24.7495C173.489 25.2698 174.096 25.5299 174.817 25.5299C175.858 25.5299 176.599 25.0173 177.039 23.992H180.062C179.742 25.2162 179.128 26.2262 178.221 27.022C177.313 27.8024 176.198 28.1926 174.877 28.1926C173.809 28.1926 172.848 27.9248 171.994 27.3892C171.153 26.8383 170.492 26.0655 170.012 25.0709C169.545 24.0762 169.311 22.9285 169.311 21.6277C169.311 20.3117 169.545 19.1564 170.012 18.1617C170.479 17.167 171.133 16.4019 171.974 15.8663C172.815 15.3307 173.782 15.0629 174.877 15.0629C175.931 15.0629 176.872 15.323 177.7 15.8433C178.541 16.3636 179.188 17.1058 179.642 18.0699C180.109 19.0186 180.343 20.1128 180.343 21.3523ZM177.44 20.4341C177.426 19.6078 177.166 18.9498 176.659 18.4601C176.152 17.9551 175.531 17.7026 174.797 17.7026C174.103 17.7026 173.516 17.9474 173.035 18.4371C172.568 18.9115 172.281 19.5772 172.174 20.4341H177.44ZM186.133 34L193 15.2695H190.017L187.114 24.1527L184.251 15.2695H181.107L185.552 27.6647L183.15 34H186.133Z" fill="#33CC95"/>
</svg>
